<mxfile host="app.diagrams.net" modified="2023-05-17T09:00:49.209Z" agent="Mozilla/5.0 (X11; Linux x86_64) AppleWebKit/537.36 (KHTML, like Gecko) Chrome/113.0.0.0 Safari/537.36" etag="86sxu4V3VkviSxVRGAOt" version="21.2.9" type="github">
  <diagram name="Side-1" id="MG1ACbbqZCs7kvts3tL8">
    <mxGraphModel dx="1499" dy="645" grid="1" gridSize="10" guides="1" tooltips="1" connect="1" arrows="1" fold="1" page="1" pageScale="1" pageWidth="827" pageHeight="1169" math="0" shadow="0">
      <root>
        <mxCell id="0" />
        <mxCell id="1" parent="0" />
      </root>
    </mxGraphModel>
  </diagram>
</mxfile>
